# xmcd CD database file
#
# Track frame offsets:
#	150
#	10051
#	27518
#	41114
#	51999
#	63427
#	70077
#	82199
#	96637
#	112179
#	123045
#
# Disc length: 1808 seconds
#
# Revision: 0
# Processed by: cddbd v1.5.2PL0 Copyright (c) Steve Scherf et al.
# Submitted via: cdripper 1,0,39,0213
#
DISCID=9d070e0b
DTITLE=Don Williams - I Believe In You
DYEAR=2004
DGENRE=Country
TTITLE0=Take My Hand For A While
TTITLE1=I Believe In You
TTITLE2=Pretend
TTITLE3=Find A Reason To Believe
TTITLE4=Storybook Children
TTITLE5=Lord, I Hope This Day Is Good
TTITLE6=I'll Be There If You Every Want Me
TTITLE7=Long Black Veil
TTITLE8=Tears
TTITLE9=Spend Some Time With Me
TTITLE10=There's Never Been A Time
EXTD=YEAR: 2004
EXTT0=
EXTT1=
EXTT2=
EXTT3=
EXTT4=
EXTT5=
EXTT6=
EXTT7=
EXTT8=
EXTT9=
EXTT10=
PLAYORDER=
